<svg xmlns="http://www.w3.org/2000/svg" width="58.564" height="64" viewBox="0 0 58.564 64">
  <g id="測試svg-04" transform="translate(-10.87 -1.668)">
    <path id="Path_67" data-name="Path 67" d="M19.4,27.349c.124-1.36.243-2.642.358-3.923q.432-4.75.858-9.5c.234-2.611.457-5.221.694-7.829a19.921,19.921,0,0,1,.248-2.173,2.733,2.733,0,0,1,2.814-2.255c1.8.09,3.6.282,5.393.44,2.611.231,5.218.474,7.829.708q3.979.356,7.959.706t7.956.717c1.135.1,2.275.152,3.4.316a2.49,2.49,0,0,1,1.3.593c1.236,1.194,2.4,2.461,3.6,3.694a2.179,2.179,0,0,1,.643,1.815q-.428,4.619-.847,9.24-.347,3.819-.689,7.637c-.011.124,0,.251,0,.452h1.564a2.649,2.649,0,0,1,2.966,2.983c0,3.57.006,7.14-.008,10.708a1.173,1.173,0,0,0,.421,1.01,6.924,6.924,0,0,1,.773.776,2,2,0,0,1,.028,2.7.673.673,0,0,0-.113.948,2.051,2.051,0,0,1,.243.593.605.605,0,0,0,.632.5,2.064,2.064,0,0,1,2,2.238c.008,1.033.017,2.066,0,3.1a2.03,2.03,0,0,1-1.874,2.091.844.844,0,0,0-.818.635c-.231.6-.463,1.072.113,1.7a1.834,1.834,0,0,1-.214,2.422c-.813.858-1.645,1.7-2.509,2.506a1.942,1.942,0,0,1-2.7.045.684.684,0,0,0-.94-.13,2.862,2.862,0,0,1-.655.262.57.57,0,0,0-.466.638,1.971,1.971,0,0,1-2.049,1.947c-1.1.008-2.193.008-3.291,0a2.017,2.017,0,0,1-2.1-1.922.661.661,0,0,0-.559-.7,9.569,9.569,0,0,1-1.044-.44c-1.386,1.157-2.393,1.163-3.579-.178a3.707,3.707,0,0,0-3.116-1.307c-8.772.065-17.546.045-26.321.017a13.138,13.138,0,0,1-3.057-.381,4.085,4.085,0,0,1-3.381-4.386q0-13.191.014-26.386v-.195a2.307,2.307,0,0,1,2.438-2.43c1.764-.023,3.528-.006,5.289-.006h.79ZM54.345,6.461c-.141-.023-.22-.042-.3-.051q-7.667-.7-15.334-1.4-6.994-.635-13.987-1.259c-.717-.065-1.061.152-1.16.866s-.133,1.411-.195,2.117q-.347,3.916-.7,7.829-.419,4.653-.847,9.3-.368,4.073-.734,8.148c-.1,1.084-.183,2.168-.277,3.28.178.014.3.031.426.031q9.064,0,18.125.011a.737.737,0,0,0,.737-.466c1.008-1.823,2.035-3.632,3.045-5.453A2.565,2.565,0,0,1,45.6,27.975c4.149.031,8.3.011,12.449.011h.745c.463-5.159.917-10.253,1.377-15.379-1.473-.133-2.839-.271-4.211-.378a2,2,0,0,1-1.93-2.317c.121-1.132.209-2.263.316-3.457Zm-10.29,52.6c.138-.4.164-.861.409-1.089.621-.579.361-1.1.119-1.71a.834.834,0,0,0-.81-.627,1.957,1.957,0,0,1-1.843-2.029c-.028-1.03-.014-2.063-.008-3.1a2.07,2.07,0,0,1,2.035-2.334,1,1,0,0,0,.536-.409,6.6,6.6,0,0,0,.279-.643.713.713,0,0,0-.127-.96,1.921,1.921,0,0,1,.008-2.642q1.249-1.35,2.6-2.6a1.919,1.919,0,0,1,2.642-.008.659.659,0,0,0,.937.127,1.781,1.781,0,0,1,.533-.223.646.646,0,0,0,.564-.7,2.027,2.027,0,0,1,2.094-1.933c1.1-.008,2.2-.051,3.288.02a2.879,2.879,0,0,1,1.346.491,1.976,1.976,0,0,1,.737,1.888c.477.2.929.4,1.389.573a.45.45,0,0,0,.384-.045,2.287,2.287,0,0,1,2.218-.621V31.1c0-.917-.107-1.024-1.041-1.024-5.484,0-10.965.008-16.448-.014a1.091,1.091,0,0,0-1.1.669c-1.047,1.922-2.153,3.813-3.192,5.741a1.591,1.591,0,0,1-1.583.94c-7.1-.023-14.191-.014-21.286-.014h-.779V59.063h26.1Zm18.557,2.179c.864-.8,1.643-1.527,2.475-2.3-.172-.144-.327-.26-.466-.392-.773-.739-.807-1.016-.319-1.967a5.093,5.093,0,0,0,.593-1.349c.237-1.281.914-1.88,2.232-1.685.054.008.113-.042.195-.073v-2.7a3.98,3.98,0,0,0-.059-.483h-.658c-.974.008-1.216-.2-1.535-1.115a20.939,20.939,0,0,0-.895-2.128,1.165,1.165,0,0,1,.22-1.518c.234-.214.505-.4.66-.516-.852-.883-1.6-1.651-2.433-2.515-.192.231-.387.485-.6.723a1.1,1.1,0,0,1-1.4.234q-1.232-.542-2.486-1.027a1.1,1.1,0,0,1-.818-1.16c.011-.333,0-.666,0-.974H54v1.01a1.11,1.11,0,0,1-.8,1.118q-1.283.5-2.549,1.05a1.082,1.082,0,0,1-1.3-.189c-.254-.251-.471-.539-.593-.68l-2.54,2.368a5.455,5.455,0,0,1,.573.437c.675.649.691.923.3,1.753-.33.694-.618,1.411-.878,2.134s-.548.985-1.3,1c-.291.006-.581,0-.872,0v3.274h.669c.971-.014,1.228.183,1.524,1.115a5.188,5.188,0,0,0,.454,1.2c.731,1.171,1.033,2.255-.3,2.98L48.7,61.293c.11-.127.229-.277.361-.418.717-.754.988-.773,1.911-.327a19.456,19.456,0,0,0,2.139.861,1.147,1.147,0,0,1,.895,1.177v.988h3.308v-.728c0-.985.15-1.18,1.07-1.479a5.306,5.306,0,0,0,1.374-.531,1.851,1.851,0,0,1,2.918.421c.008.014.04.011-.071-.014ZM19.213,29.5h-6.2v.756q-.017,12.9-.031,25.787c0,.257.011.516.02.773a1.812,1.812,0,0,0,1.276,1.755c.454.172.937.271,1.5.429V43.978c0-2.105-.011-4.211.006-6.319a2.216,2.216,0,0,1,2.292-2.334c.206-.006.412-.02.618-.031C18.871,33.321,19.041,31.421,19.213,29.5ZM56.639,6.523l-.212.164c-.1,1.143-.2,2.286-.3,3.457,1.459.127,2.825.246,4.188.361-1.2-1.425-2.41-2.732-3.675-3.982Z" transform="translate(0 0)" fill="#fefefe"/>
    <path id="Path_68" data-name="Path 68" d="M96.964,48.834c-2.681-.24-5.2-.469-7.727-.694q-3.979-.36-7.956-.717c-2.1-.186-4.194-.356-6.288-.553-.852-.082-1.25-.533-1.163-1.225.085-.658.624-.951,1.465-.869,2.673.254,5.345.485,8.018.728q4.716.428,9.429.858c1.177.107,2.354.2,3.531.3.257.023.514.042.768.087a1.042,1.042,0,0,1-.076,2.08Z" transform="translate(-45.182 -30.932)" fill="#fefefe"/>
    <path id="Path_69" data-name="Path 69" d="M88.576,69.091q-4.843-.445-9.683-.889c-3.121-.279-.174.015-3.3-.261-.9-.079-1.8-.161-2.692-.257a1.035,1.035,0,0,1-.977-1.078.984.984,0,0,1,1.12-.974c1.82.127,3.638.291,5.456.449,2.653.234-.769-.083,1.882.157q4.331.389,8.659.782a1.019,1.019,0,0,1,.993,1.12,1,1,0,0,1-1.14.954c-.107,0-.214-.017-.322-.025v.02Z" transform="translate(-43.825 -45.909)" fill="#fefefe"/>
    <path id="Path_70" data-name="Path 70" d="M159.181,162.6a6.716,6.716,0,1,1-6.734-6.7,6.736,6.736,0,0,1,6.734,6.7Zm-6.7,4.637a4.61,4.61,0,1,0-4.646-4.6,4.592,4.592,0,0,0,4.646,4.6Z" transform="translate(-96.813 -110.702)" fill="#fefefe"/>
  </g>
</svg>
