<svg xmlns="http://www.w3.org/2000/svg" width="64" height="64" viewBox="0 0 64 64">
  <g id="_123" data-name="123" transform="translate(-0.04 -1.59)">
    <path id="Path_49" data-name="Path 49" d="M7.5,57.064V56.1c0-16.279.034-32.556-.028-48.835A5.625,5.625,0,0,1,13.177,1.59Q34.708,1.7,56.245,1.6a7.634,7.634,0,0,1,7.739,6.461,5.885,5.885,0,0,1,.056.863c0,.838-.373,1.221-1.211,1.227-1.865.006-3.734,0-5.6,0h-.652v53.8c0,1.413-.229,1.639-1.671,1.639H7.773a7.425,7.425,0,0,1-7.66-6.366A5.336,5.336,0,0,1,.04,58.3c-.006-.843.367-1.227,1.2-1.23,1.866-.006,3.734,0,5.6,0H7.5Zm46.9,6.414V3.75H13.3C10.92,3.75,9.63,5.036,9.63,7.408V57.061H45.692c.875,0,1.126.31,1.307,1.156A4.731,4.731,0,0,0,47.75,60.1,9.1,9.1,0,0,0,54.4,63.474ZM2.323,59.213c.014.107.02.195.04.276a5.361,5.361,0,0,0,5.416,3.968q19.8,0,39.59,0c.183,0,.367-.025.511-.034a19.56,19.56,0,0,1-1.775-1.9A20.565,20.565,0,0,1,44.82,59.21H2.323ZM56.606,7.986h5.122A5.165,5.165,0,0,0,56.606,3.8Z" transform="translate(0 0)" fill="#fefefe"/>
    <path id="Path_50" data-name="Path 50" d="M70.012,16.83A17.058,17.058,0,1,1,52.94,33.73a17.046,17.046,0,0,1,17.072-16.9ZM55.068,33.916A14.938,14.938,0,1,0,70.026,18.957,15,15,0,0,0,55.068,33.916Z" transform="translate(-37.97 -9.942)" fill="#fefefe"/>
    <path id="Path_52" data-name="Path 52" d="M93.039,160.65v2.045H56.83V160.65Z" transform="translate(-42.894 -116.199)" fill="#fefefe"/>
    <path id="Path_53" data-name="Path 53" d="M93.084,175.76v2.053H56.9V175.76Z" transform="translate(-42.945 -125.048)" fill="#fefefe"/>
    <path id="Path_57" data-name="Path 57" d="M89.022,47.063h8.2c1.027,0,1.372.333,1.372,1.334V62.781c0,1-.344,1.337-1.369,1.337H80.762c-1.05,0-1.372-.33-1.372-1.4V48.465c0-1.1.313-1.4,1.434-1.4h8.2ZM81.569,49.22V61.937H96.428V49.232H94.322c0,1.723.006,3.4,0,5.088,0,1.108-.728,1.56-1.733,1.075-.977-.474-1.964-.934-2.907-1.467a1.269,1.269,0,0,0-1.4.02c-.872.482-1.806.852-2.664,1.354-1.18.691-2.057,0-1.984-1.21.1-1.608.025-3.227.025-4.868H81.569Zm4.264-.006v3.548a17.811,17.811,0,0,0,1.77-.9,2.3,2.3,0,0,1,2.763-.011,17.555,17.555,0,0,0,1.784.9v-3.54H85.83Z" transform="translate(-56.956 -31.646)" fill="#fefefe"/>
  </g>
</svg>
